<?xml version="1.0" encoding="UTF-8" standalone="no"?>
<svg xmlns="http://www.w3.org/2000/svg" viewBox="0 0 100 100" width="100" height="100">
  <defs>
    <linearGradient id="gradient" x1="0%" y1="0%" x2="100%" y2="100%">
      <stop offset="0%" stop-color="#4361ee" />
      <stop offset="100%" stop-color="#4cc9f0" />
    </linearGradient>
  </defs>
  <rect x="10" y="10" width="80" height="80" rx="15" fill="white" stroke="url(#gradient)" stroke-width="4"/>
  <g transform="scale(0.65) translate(22, 22)">
    <path d="M36 4H12C9.79 4 8 5.79 8 8V88C8 90.21 9.79 92 12 92H68C70.21 92 72 90.21 72 88V24L52 4H36Z" fill="#4361ee" opacity="0.9"/>
    <path d="M68 24H52V8L68 24Z" fill="#4cc9f0"/>
    <rect x="24" y="36" width="32" height="4" rx="2" fill="white"/>
    <rect x="24" y="48" width="32" height="4" rx="2" fill="white"/>
    <rect x="24" y="60" width="24" height="4" rx="2" fill="white"/>
    <circle cx="16" cy="38" r="4" fill="#4cc9f0"/>
    <circle cx="16" cy="50" r="4" fill="#4cc9f0"/>
    <circle cx="16" cy="62" r="4" fill="#4cc9f0"/>
  </g>
</svg>